<svg xmlns="http://www.w3.org/2000/svg" xmlns:xlink="http://www.w3.org/1999/xlink" xmlns:lucid="lucid" width="1776" height="1048.5"><g transform="translate(21 -119)" lucid:page-tab-id="0_0"><path d="M660 266a6 6 0 0 1 6-6h362a6 6 0 0 1 6 6v452a6 6 0 0 1-6 6H666a6 6 0 0 1-6-6z" stroke="#000" stroke-width="2" fill="#fff7a1"/><path d="M660 305.58h374m-374 351h374" stroke="#000" stroke-width="2" fill="none"/><use xlink:href="#a" transform="matrix(1,0,0,1,668,268) translate(151.45095486111111 23.89214409722222)"/><use xlink:href="#b" transform="matrix(1,0,0,1,672,313.5768229166667) translate(0 34.92339409722224)"/><use xlink:href="#c" transform="matrix(1,0,0,1,672,313.5768229166667) translate(23.047960069444446 34.92339409722224)"/><use xlink:href="#d" transform="matrix(1,0,0,1,672,313.5768229166667) translate(151.99001736111114 34.92339409722224)"/><use xlink:href="#b" transform="matrix(1,0,0,1,672,313.5768229166667) translate(0 70.41558159722224)"/><use xlink:href="#e" transform="matrix(1,0,0,1,672,313.5768229166667) translate(23.047960069444446 70.41558159722224)"/><use xlink:href="#f" transform="matrix(1,0,0,1,672,313.5768229166667) translate(100.79752604166667 70.41558159722224)"/><use xlink:href="#b" transform="matrix(1,0,0,1,672,313.5768229166667) translate(0 105.90776909722224)"/><use xlink:href="#g" transform="matrix(1,0,0,1,672,313.5768229166667) translate(23.047960069444446 105.90776909722224)"/><use xlink:href="#d" transform="matrix(1,0,0,1,672,313.5768229166667) translate(141.34331597222223 105.90776909722224)"/><use xlink:href="#b" transform="matrix(1,0,0,1,672,313.5768229166667) translate(0 141.39995659722223)"/><use xlink:href="#h" transform="matrix(1,0,0,1,672,313.5768229166667) translate(23.047960069444446 141.39995659722223)"/><use xlink:href="#d" transform="matrix(1,0,0,1,672,313.5768229166667) translate(98.19552951388889 141.39995659722223)"/><use xlink:href="#b" transform="matrix(1,0,0,1,672,313.5768229166667) translate(0 176.89214409722223)"/><use xlink:href="#i" transform="matrix(1,0,0,1,672,313.5768229166667) translate(23.047960069444446 176.89214409722223)"/><use xlink:href="#d" transform="matrix(1,0,0,1,672,313.5768229166667) translate(119.07118055555554 176.89214409722223)"/><use xlink:href="#b" transform="matrix(1,0,0,1,672,313.5768229166667) translate(0 212.38433159722223)"/><use xlink:href="#j" transform="matrix(1,0,0,1,672,313.5768229166667) translate(23.047960069444446 212.38433159722223)"/><use xlink:href="#k" transform="matrix(1,0,0,1,672,313.5768229166667) translate(79.9338107638889 212.38433159722223)"/><use xlink:href="#b" transform="matrix(1,0,0,1,672,313.5768229166667) translate(0 247.87651909722223)"/><use xlink:href="#l" transform="matrix(1,0,0,1,672,313.5768229166667) translate(23.047960069444446 247.87651909722223)"/><use xlink:href="#d" transform="matrix(1,0,0,1,672,313.5768229166667) translate(79.06250000000001 247.87651909722223)"/><use xlink:href="#b" transform="matrix(1,0,0,1,672,313.5768229166667) translate(0 283.36870659722223)"/><use xlink:href="#m" transform="matrix(1,0,0,1,672,313.5768229166667) translate(23.047960069444446 283.36870659722223)"/><use xlink:href="#d" transform="matrix(1,0,0,1,672,313.5768229166667) translate(125.80295138888889 283.36870659722223)"/><use xlink:href="#n" transform="matrix(1,0,0,1,672,313.5768229166667) translate(0 318.86089409722223)"/><use xlink:href="#o" transform="matrix(1,0,0,1,672,313.5768229166667) translate(23.047960069444446 318.86089409722223)"/><use xlink:href="#p" transform="matrix(1,0,0,1,672,313.5768229166667) translate(149.68641493055557 318.86089409722223)"/><use xlink:href="#q" transform="matrix(1,0,0,1,672,664.5911458333333) translate(0 34.89214409722222)"/><path d="M-20 506a6 6 0 0 1 6-6h362a6 6 0 0 1 6 6v203a6 6 0 0 1-6 6H-14a6 6 0 0 1-6-6z" stroke="#000" stroke-width="2" fill="#c3f7c8"/><path d="M-20 545.58h374m-374 67.07h374" stroke="#000" stroke-width="2" fill="none"/><use xlink:href="#r" transform="matrix(1,0,0,1,-12,508) translate(87.11121961805553 23.89214409722222)"/><use xlink:href="#s" transform="matrix(1,0,0,1,-8,620.6536458333333) translate(0 34.64605034722222)"/><use xlink:href="#t" transform="matrix(1,0,0,1,-8,620.6536458333333) translate(0 70.13823784722223)"/><path d="M-20 246a6 6 0 0 1 6-6h362a6 6 0 0 1 6 6v203a6 6 0 0 1-6 6H-14a6 6 0 0 1-6-6z" stroke="#000" stroke-width="2" fill="#c3f7c8"/><path d="M-20 285.58h374m-374 67.07h374" stroke="#000" stroke-width="2" fill="none"/><use xlink:href="#u" transform="matrix(1,0,0,1,-12,248) translate(140.87586805555554 23.89214409722222)"/><use xlink:href="#v" transform="matrix(1,0,0,1,-8,360.65364583333337) translate(0 34.64605034722222)"/><use xlink:href="#w" transform="matrix(1,0,0,1,-8,360.65364583333337) translate(0 70.13823784722223)"/><path d="M1380 850.5a6 6 0 0 1 6-6h362a6 6 0 0 1 6 6v310a6 6 0 0 1-6 6h-362a6 6 0 0 1-6-6z" stroke="#000" stroke-width="2" fill="#fff7a1"/><path d="M1380 890.08h374m-374 209.04h374" stroke="#000" stroke-width="2" fill="none"/><use xlink:href="#x" transform="matrix(1,0,0,1,1388,852.5) translate(151.87467447916666 23.89214409722222)"/><use xlink:href="#b" transform="matrix(1,0,0,1,1392,898.0768229166666) translate(0 34.90776909722223)"/><use xlink:href="#y" transform="matrix(1,0,0,1,1392,898.0768229166666) translate(23.047960069444446 34.90776909722223)"/><use xlink:href="#k" transform="matrix(1,0,0,1,1392,898.0768229166666) translate(122.49674479166667 34.90776909722223)"/><use xlink:href="#b" transform="matrix(1,0,0,1,1392,898.0768229166666) translate(0 70.39995659722223)"/><use xlink:href="#z" transform="matrix(1,0,0,1,1392,898.0768229166666) translate(23.047960069444446 70.39995659722223)"/><use xlink:href="#d" transform="matrix(1,0,0,1,1392,898.0768229166666) translate(100.79752604166667 70.39995659722223)"/><use xlink:href="#b" transform="matrix(1,0,0,1,1392,898.0768229166666) translate(0 105.89214409722223)"/><use xlink:href="#A" transform="matrix(1,0,0,1,1392,898.0768229166666) translate(23.047960069444446 105.89214409722223)"/><use xlink:href="#d" transform="matrix(1,0,0,1,1392,898.0768229166666) translate(92.37087673611111 105.89214409722223)"/><use xlink:href="#b" transform="matrix(1,0,0,1,1392,898.0768229166666) translate(0 141.38433159722223)"/><use xlink:href="#B" transform="matrix(1,0,0,1,1392,898.0768229166666) translate(23.047960069444446 141.38433159722223)"/><use xlink:href="#C" transform="matrix(1,0,0,1,1392,898.0768229166666) translate(78.91927083333334 141.38433159722223)"/><use xlink:href="#b" transform="matrix(1,0,0,1,1392,898.0768229166666) translate(0 176.87651909722223)"/><use xlink:href="#D" transform="matrix(1,0,0,1,1392,898.0768229166666) translate(23.047960069444446 176.87651909722223)"/><use xlink:href="#p" transform="matrix(1,0,0,1,1392,898.0768229166666) translate(125.80295138888889 176.87651909722223)"/><path d="M1380 126a6 6 0 0 1 6-6h362a6 6 0 0 1 6 6v310a6 6 0 0 1-6 6h-362a6 6 0 0 1-6-6z" stroke="#000" stroke-width="2" fill="#fff7a1"/><path d="M1380 165.58h374m-374 209.04h374" stroke="#000" stroke-width="2" fill="none"/><g><use xlink:href="#E" transform="matrix(1,0,0,1,1388,128) translate(129.59060329861111 23.89214409722222)"/></g><g><use xlink:href="#b" transform="matrix(1,0,0,1,1392,173.57682291666669) translate(0 34.90776909722223)"/><use xlink:href="#F" transform="matrix(1,0,0,1,1392,173.57682291666669) translate(23.047960069444446 34.90776909722223)"/><use xlink:href="#k" transform="matrix(1,0,0,1,1392,173.57682291666669) translate(162.60091145833334 34.90776909722223)"/><use xlink:href="#b" transform="matrix(1,0,0,1,1392,173.57682291666669) translate(0 70.39995659722223)"/><use xlink:href="#z" transform="matrix(1,0,0,1,1392,173.57682291666669) translate(23.047960069444446 70.39995659722223)"/><use xlink:href="#d" transform="matrix(1,0,0,1,1392,173.57682291666669) translate(100.79752604166667 70.39995659722223)"/><use xlink:href="#b" transform="matrix(1,0,0,1,1392,173.57682291666669) translate(0 105.89214409722223)"/><use xlink:href="#l" transform="matrix(1,0,0,1,1392,173.57682291666669) translate(23.047960069444446 105.89214409722223)"/><use xlink:href="#d" transform="matrix(1,0,0,1,1392,173.57682291666669) translate(79.06250000000001 105.89214409722223)"/><use xlink:href="#b" transform="matrix(1,0,0,1,1392,173.57682291666669) translate(0 141.38433159722223)"/><use xlink:href="#m" transform="matrix(1,0,0,1,1392,173.57682291666669) translate(23.047960069444446 141.38433159722223)"/><use xlink:href="#d" transform="matrix(1,0,0,1,1392,173.57682291666669) translate(125.80295138888889 141.38433159722223)"/><use xlink:href="#b" transform="matrix(1,0,0,1,1392,173.57682291666669) translate(0 176.87651909722223)"/><use xlink:href="#G" transform="matrix(1,0,0,1,1392,173.57682291666669) translate(23.047960069444446 176.87651909722223)"/><use xlink:href="#p" transform="matrix(1,0,0,1,1392,173.57682291666669) translate(88.39626736111111 176.87651909722223)"/></g><path d="M700 886a6 6 0 0 1 6-6h362a6 6 0 0 1 6 6v239a6 6 0 0 1-6 6H706a6 6 0 0 1-6-6z" stroke="#000" stroke-width="2" fill="#fff7a1"/><path d="M700 925.58h374m-374 138.06h374" stroke="#000" stroke-width="2" fill="none"/><g><use xlink:href="#H" transform="matrix(1,0,0,1,708,888) translate(136.41786024305554 23.89214409722222)"/></g><g><use xlink:href="#b" transform="matrix(1,0,0,1,712,933.5768229166666) translate(0 34.89995659722222)"/><use xlink:href="#I" transform="matrix(1,0,0,1,712,933.5768229166666) translate(23.047960069444446 34.89995659722222)"/><use xlink:href="#J" transform="matrix(1,0,0,1,712,933.5768229166666) translate(87.6681857638889 34.89995659722222)"/><use xlink:href="#b" transform="matrix(1,0,0,1,712,933.5768229166666) translate(0 70.39214409722223)"/><use xlink:href="#K" transform="matrix(1,0,0,1,712,933.5768229166666) translate(23.047960069444446 70.39214409722223)"/><use xlink:href="#d" transform="matrix(1,0,0,1,712,933.5768229166666) translate(80.244140625 70.39214409722223)"/><use xlink:href="#b" transform="matrix(1,0,0,1,712,933.5768229166666) translate(0 105.88433159722221)"/><use xlink:href="#L" transform="matrix(1,0,0,1,712,933.5768229166666) translate(23.047960069444446 105.88433159722221)"/><use xlink:href="#M" transform="matrix(1,0,0,1,712,933.5768229166666) translate(101.53754340277779 105.88433159722221)"/></g><path d="M355.5 607.5h269.52" stroke="#3a414a" fill="none"/><path d="M355.5 607.98h-.5V607h.5z" stroke="#3a414a" stroke-width=".05" fill="#3a414a"/><path d="M658 607.5l-32.48 18.75v-37.5z" stroke="#3a414a" fill="#fff"/><path d="M167 716.5v283a6 6 0 0 0 6 6h525.5" stroke="#3a414a" fill="none"/><path d="M167.48 716.5h-.95v-.5h.95zM699 1005.98h-.5v-.96h.5z" stroke="#3a414a" stroke-width=".05" fill="#3a414a"/><g><use xlink:href="#N" transform="matrix(1,0,0,1,149.0583767361111,787.7032033806546) translate(0 23.680555555555557)"/></g><g><use xlink:href="#O" transform="matrix(1,0,0,1,585.2804029141137,971.9231770833333) translate(0 23.680555555555557)"/></g><path d="M1075.5 1005.5h303" stroke="#3a414a" fill="none"/><path d="M1075.52 1005.98h-.52v-.96h.52zM1379 1005.98h-.5v-.96h.5z" stroke="#3a414a" stroke-width=".05" fill="#3a414a"/><g><use xlink:href="#O" transform="matrix(1,0,0,1,1077.657581947214,1009.4999999999999) translate(0 23.680555555555557)"/></g><g><use xlink:href="#N" transform="matrix(1,0,0,1,1344.4151650381668,971.9231770833333) translate(0 23.680555555555557)"/></g><path d="M1567 443.5V843" stroke="#3a414a" fill="none"/><path d="M1567.48 443.5h-.95v-.5h.95zM1567.48 843.5h-.95v-.5h.95z" stroke="#3a414a" stroke-width=".05" fill="#3a414a"/><g><use xlink:href="#P" transform="matrix(1,0,0,1,1522.2864583333333,487.01433892615074) translate(0 23.680555555555557)"/></g><g><use xlink:href="#O" transform="matrix(1,0,0,1,1575.0008680555554,779.528810684647) translate(0 23.680555555555557)"/></g><path d="M355.5 347.5h269.52" stroke="#3a414a" fill="none"/><path d="M355.5 347.98h-.5v-.96h.5z" stroke="#3a414a" stroke-width=".05" fill="#3a414a"/><path d="M658 347.5l-32.48 18.75v-37.5z" stroke="#3a414a" fill="#fff"/><path d="M355.5 662.37H389a6 6 0 0 1 6 6v168a6 6 0 0 0 6 6h853a6 6 0 0 0 6-6v-483.2a6 6 0 0 1 6-6h112.5" stroke="#3a414a" fill="none"/><path d="M355.5 662.85h-.5v-.95h.5zM1379 347.63h-.5v-.95h.5z" stroke="#3a414a" stroke-width=".05" fill="#3a414a"/><g><use xlink:href="#O" transform="matrix(1,0,0,1,403.0017130310667,684.9866908636805) translate(0 23.680555555555557)"/></g><g><use xlink:href="#O" transform="matrix(1,0,0,1,1307.9876435423207,313.5816848569372) translate(0 23.680555555555557)"/></g><path d="M727 786a6 6 0 0 1 6-6h228a6 6 0 0 1 6 6v48a6 6 0 0 1-6 6H733a6 6 0 0 1-6-6z" fill="none"/><g><use xlink:href="#Q" transform="matrix(1,0,0,1,727.0008680555555,780) translate(82.90961371527777 38.89214409722222)"/></g><defs><path d="M750 21c-371 0-615-218-615-544v-967h305v942c0 174 123 299 310 299s309-125 309-299v-942h306v967c0 326-247 544-615 544" id="R"/><path d="M572 22C302 22 117-98 78-306l279-48c29 105 101 156 224 156 114 0 185-48 185-115 0-118-228-130-337-155-215-49-322-150-322-317 0-215 187-347 470-347 265 0 424 116 466 298l-266 47c-24-76-87-130-196-130-98 0-174 46-174 113 0 56 38 95 144 117l201 40c216 44 320 143 320 302 0 220-207 367-500 367" id="S"/><path d="M633 22C291 22 81-200 81-553c0-345 210-579 537-579 292 0 525 185 525 567v84H378c7 183 109 277 260 277 105 0 184-46 216-132l272 51C1071-99 893 22 633 22zM380-669h474c-15-146-94-237-233-237-143 0-229 99-241 237" id="T"/><path d="M128 0v-1118h290v195h12c54-169 184-238 367-200v268c-27-8-86-15-130-15-138 0-239 95-239 234V0H128" id="U"/><g id="a"><use transform="matrix(0.01193576388888889,0,0,0.01193576388888889,0,0)" xlink:href="#R"/><use transform="matrix(0.01193576388888889,0,0,0.01193576388888889,17.891710069444446,0)" xlink:href="#S"/><use transform="matrix(0.01193576388888889,0,0,0.01193576388888889,31.582031250000004,0)" xlink:href="#T"/><use transform="matrix(0.01193576388888889,0,0,0.01193576388888889,46.14366319444445,0)" xlink:href="#U"/></g><path d="M593-100v-404H195v-159h398v-403h169v403h398v159H762v404H593" id="V"/><use transform="matrix(0.01193576388888889,0,0,0.01193576388888889,0,0)" xlink:href="#V" id="b"/><path d="M537 14c-226 0-379-139-379-422v-710h180v695c0 172 97 275 253 275 160 0 281-109 281-300v-670h181V0H879v-209C806-46 684 14 537 14" id="W"/><path d="M538 24C308 24 148-78 108-271l171-41c32 123 123 178 257 178 156 0 256-77 256-169 0-77-54-128-164-154l-186-44c-203-48-300-148-300-305 0-192 176-326 414-326 230 0 351 112 402 269l-163 42c-31-80-94-158-238-158-133 0-233 69-233 162 0 83 57 129 188 160l169 40c203 48 298 149 298 302 0 196-179 339-441 339" id="X"/><path d="M628 24c-324 0-524-230-524-574 0-343 198-582 503-582 237 0 487 146 487 559v75H286c9 234 145 362 343 362 132 0 231-58 273-172l174 48C1024-91 857 24 628 24zM287-650h624c-17-190-120-322-304-322-192 0-309 151-320 322" id="Y"/><path d="M158 0v-1118h174v172h12c41-113 157-188 290-188 26 0 70 2 91 3v181c-11-2-60-10-108-10-161 0-279 109-279 260V0H158" id="Z"/><path d="M338-670V0H158v-1118h173l1 207c72-158 192-221 342-221 226 0 378 139 378 422V0H872v-695c0-172-96-275-252-275-161 0-282 109-282 300" id="aa"/><path d="M471 26C259 26 90-98 90-318c0-256 228-303 435-329 202-27 287-16 287-108 0-139-79-219-234-219-161 0-248 86-283 164l-173-57c86-203 278-265 451-265 150 0 419 46 419 395V0H815v-152h-12C765-73 660 26 471 26zm31-159c199 0 310-134 310-271v-155c-30 35-226 55-295 64-131 17-246 59-246 186 0 116 97 176 231 176" id="ab"/><path d="M158 0v-1118h175l1 205c55-151 181-225 313-225 147 0 245 90 285 228 53-141 190-228 352-228 194 0 352 125 352 384V0h-181v-749c0-161-105-225-225-225-151 0-243 103-243 244V0H807v-767c0-124-93-207-219-207-131 0-250 92-250 270V0H158" id="ac"/><path d="M295 13c-75 0-135-60-135-135s60-135 135-135 135 60 135 135S370 13 295 13zm0-809c-75 0-135-60-135-135s60-135 135-135 135 60 135 135-60 135-135 135" id="ad"/><g id="c"><use transform="matrix(0.01193576388888889,0,0,0.01193576388888889,0,0)" xlink:href="#W"/><use transform="matrix(0.01193576388888889,0,0,0.01193576388888889,14.454210069444446,0)" xlink:href="#X"/><use transform="matrix(0.01193576388888889,0,0,0.01193576388888889,27.356770833333336,0)" xlink:href="#Y"/><use transform="matrix(0.01193576388888889,0,0,0.01193576388888889,41.60807291666667,0)" xlink:href="#Z"/><use transform="matrix(0.01193576388888889,0,0,0.01193576388888889,51.19249131944445,0)" xlink:href="#aa"/><use transform="matrix(0.01193576388888889,0,0,0.01193576388888889,65.634765625,0)" xlink:href="#ab"/><use transform="matrix(0.01193576388888889,0,0,0.01193576388888889,79.36089409722223,0)" xlink:href="#ac"/><use transform="matrix(0.01193576388888889,0,0,0.01193576388888889,100.7736545138889,0)" xlink:href="#Y"/><use transform="matrix(0.01193576388888889,0,0,0.01193576388888889,115.02495659722223,0)" xlink:href="#ad"/></g><path d="M657 26c-323 0-524-166-541-416h195c15 169 171 246 346 246 202 0 356-106 356-265 5-203-294-238-475-293-239-73-380-191-380-389 0-252 224-419 512-419 294 0 499 171 508 396H992c-17-145-151-228-328-228-193 0-321 102-321 242 0 156 175 211 284 241l149 41c160 44 422 134 422 412 0 244-197 432-541 432" id="ae"/><path d="M598-1118v154H368v674c0 100 37 144 132 144 23 0 62-6 92-12L629-6c-37 13-88 20-134 20-193 0-307-107-307-290v-688H20v-154h168v-266h180v266h230" id="af"/><path d="M158 0v-1118h180V0H158zm91-1301c-68 0-125-53-125-119s57-119 125-119c69 0 126 53 126 119s-57 119-126 119" id="ag"/><path d="M611 442c-248 0-391-105-460-228l146-94c47 65 117 165 314 165 178 0 307-82 307-266v-224h-17C863-141 792-18 576-18c-268 0-472-195-472-546 0-346 197-568 476-568 216 0 288 133 326 193h17v-179h175V29c0 289-215 413-487 413zm-5-620c203 0 314-146 314-390 0-237-108-403-314-403-213 0-319 180-319 403 0 230 109 390 319 390" id="ah"/><g id="d"><use transform="matrix(0.01193576388888889,0,0,0.01193576388888889,0,0)" xlink:href="#ae"/><use transform="matrix(0.01193576388888889,0,0,0.01193576388888889,15.683593750000002,0)" xlink:href="#af"/><use transform="matrix(0.01193576388888889,0,0,0.01193576388888889,23.680555555555557,0)" xlink:href="#Z"/><use transform="matrix(0.01193576388888889,0,0,0.01193576388888889,33.264973958333336,0)" xlink:href="#ag"/><use transform="matrix(0.01193576388888889,0,0,0.01193576388888889,39.18511284722223,0)" xlink:href="#aa"/><use transform="matrix(0.01193576388888889,0,0,0.01193576388888889,53.62738715277778,0)" xlink:href="#ah"/></g><g id="e"><use transform="matrix(0.01193576388888889,0,0,0.01193576388888889,0,0)" xlink:href="#aa"/><use transform="matrix(0.01193576388888889,0,0,0.01193576388888889,14.442274305555557,0)" xlink:href="#ab"/><use transform="matrix(0.01193576388888889,0,0,0.01193576388888889,28.16840277777778,0)" xlink:href="#ac"/><use transform="matrix(0.01193576388888889,0,0,0.01193576388888889,49.581163194444436,0)" xlink:href="#Y"/><use transform="matrix(0.01193576388888889,0,0,0.01193576388888889,63.832465277777786,0)" xlink:href="#ad"/></g><g id="f"><use transform="matrix(0.01193576388888889,0,0,0.01193576388888889,0,0)" xlink:href="#ae"/><use transform="matrix(0.01193576388888889,0,0,0.01193576388888889,15.683593750000002,0)" xlink:href="#af"/><use transform="matrix(0.01193576388888889,0,0,0.01193576388888889,23.680555555555557,0)" xlink:href="#Z"/><use transform="matrix(0.01193576388888889,0,0,0.01193576388888889,33.264973958333336,0)" xlink:href="#ag"/><use transform="matrix(0.01193576388888889,0,0,0.01193576388888889,39.18511284722223,0)" xlink:href="#aa"/><use transform="matrix(0.01193576388888889,0,0,0.01193576388888889,53.62738715277778,0)" xlink:href="#ah"/></g><path d="M338-1490V0H158v-1490h180" id="ai"/><g id="g"><use transform="matrix(0.01193576388888889,0,0,0.01193576388888889,0,0)" xlink:href="#ai"/><use transform="matrix(0.01193576388888889,0,0,0.01193576388888889,5.920138888888889,0)" xlink:href="#ab"/><use transform="matrix(0.01193576388888889,0,0,0.01193576388888889,19.646267361111114,0)" xlink:href="#X"/><use transform="matrix(0.01193576388888889,0,0,0.01193576388888889,32.548828125,0)" xlink:href="#af"/><use transform="matrix(0.01193576388888889,0,0,0.01193576388888889,40.54578993055556,0)" xlink:href="#aa"/><use transform="matrix(0.01193576388888889,0,0,0.01193576388888889,54.988064236111114,0)" xlink:href="#ab"/><use transform="matrix(0.01193576388888889,0,0,0.01193576388888889,68.71419270833334,0)" xlink:href="#ac"/><use transform="matrix(0.01193576388888889,0,0,0.01193576388888889,90.12695312500001,0)" xlink:href="#Y"/><use transform="matrix(0.01193576388888889,0,0,0.01193576388888889,104.37825520833334,0)" xlink:href="#ad"/></g><g id="h"><use transform="matrix(0.01193576388888889,0,0,0.01193576388888889,0,0)" xlink:href="#Y"/><use transform="matrix(0.01193576388888889,0,0,0.01193576388888889,14.251302083333334,0)" xlink:href="#ac"/><use transform="matrix(0.01193576388888889,0,0,0.01193576388888889,35.6640625,0)" xlink:href="#ab"/><use transform="matrix(0.01193576388888889,0,0,0.01193576388888889,49.39019097222223,0)" xlink:href="#ag"/><use transform="matrix(0.01193576388888889,0,0,0.01193576388888889,55.310329861111114,0)" xlink:href="#ai"/><use transform="matrix(0.01193576388888889,0,0,0.01193576388888889,61.23046875000001,0)" xlink:href="#ad"/></g><path d="M577 24c-279 0-473-224-473-580 0-354 195-576 474-576 218 0 287 134 324 193h14v-551h180V0H922v-173h-20C865-111 790 24 577 24zm27-161c203 0 314-172 314-421 0-247-108-413-314-413-212 0-317 181-317 413 0 235 108 421 317 421" id="aj"/><g id="i"><use transform="matrix(0.01193576388888889,0,0,0.01193576388888889,0,0)" xlink:href="#ah"/><use transform="matrix(0.01193576388888889,0,0,0.01193576388888889,14.991319444444446,0)" xlink:href="#Y"/><use transform="matrix(0.01193576388888889,0,0,0.01193576388888889,29.24262152777778,0)" xlink:href="#aa"/><use transform="matrix(0.01193576388888889,0,0,0.01193576388888889,43.684895833333336,0)" xlink:href="#aj"/><use transform="matrix(0.01193576388888889,0,0,0.01193576388888889,58.65234375000001,0)" xlink:href="#Y"/><use transform="matrix(0.01193576388888889,0,0,0.01193576388888889,72.90364583333333,0)" xlink:href="#Z"/><use transform="matrix(0.01193576388888889,0,0,0.01193576388888889,82.10611979166666,0)" xlink:href="#ad"/></g><g id="j"><use transform="matrix(0.01193576388888889,0,0,0.01193576388888889,0,0)" xlink:href="#ab"/><use transform="matrix(0.01193576388888889,0,0,0.01193576388888889,13.726128472222223,0)" xlink:href="#ah"/><use transform="matrix(0.01193576388888889,0,0,0.01193576388888889,28.717447916666668,0)" xlink:href="#Y"/><use transform="matrix(0.01193576388888889,0,0,0.01193576388888889,42.96875000000001,0)" xlink:href="#ad"/></g><g id="k"><use transform="matrix(0.01193576388888889,0,0,0.01193576388888889,0,0)" xlink:href="#ag"/><use transform="matrix(0.01193576388888889,0,0,0.01193576388888889,5.920138888888889,0)" xlink:href="#aa"/><use transform="matrix(0.01193576388888889,0,0,0.01193576388888889,20.362413194444446,0)" xlink:href="#af"/></g><path d="M613 24c-304 0-509-231-509-576 0-350 205-580 509-580 216 0 392 114 453 309l-173 49c-33-115-133-197-280-197-223 0-326 196-326 419 0 220 103 415 326 415 150 0 252-85 285-206l172 49C1010-95 832 24 613 24" id="ak"/><path d="M140 405l46-156c120 36 205 19 263-150l32-93L54-1118h197c107 313 237 620 324 950 87-331 219-637 326-950h196L606 167c-68 178-176 259-334 259-64 0-113-12-132-21" id="al"/><g id="l"><use transform="matrix(0.01193576388888889,0,0,0.01193576388888889,0,0)" xlink:href="#ak"/><use transform="matrix(0.01193576388888889,0,0,0.01193576388888889,13.964843750000002,0)" xlink:href="#ag"/><use transform="matrix(0.01193576388888889,0,0,0.01193576388888889,19.884982638888893,0)" xlink:href="#af"/><use transform="matrix(0.01193576388888889,0,0,0.01193576388888889,28.359375000000007,0)" xlink:href="#al"/><use transform="matrix(0.01193576388888889,0,0,0.01193576388888889,42.09743923611112,0)" xlink:href="#ad"/></g><path d="M613 24c-304 0-509-231-509-576 0-350 205-580 509-580 305 0 511 230 511 580 0 345-206 576-511 576zm0-161c226 0 329-195 329-415 0-222-103-419-329-419-223 0-326 196-326 419 0 220 103 415 326 415" id="am"/><g id="m"><use transform="matrix(0.01193576388888889,0,0,0.01193576388888889,0,0)" xlink:href="#ak"/><use transform="matrix(0.01193576388888889,0,0,0.01193576388888889,13.964843750000002,0)" xlink:href="#am"/><use transform="matrix(0.01193576388888889,0,0,0.01193576388888889,28.621961805555557,0)" xlink:href="#W"/><use transform="matrix(0.01193576388888889,0,0,0.01193576388888889,43.076171875,0)" xlink:href="#aa"/><use transform="matrix(0.01193576388888889,0,0,0.01193576388888889,57.51844618055556,0)" xlink:href="#af"/><use transform="matrix(0.01193576388888889,0,0,0.01193576388888889,65.51540798611111,0)" xlink:href="#Z"/><use transform="matrix(0.01193576388888889,0,0,0.01193576388888889,75.09982638888889,0)" xlink:href="#al"/><use transform="matrix(0.01193576388888889,0,0,0.01193576388888889,88.837890625,0)" xlink:href="#ad"/></g><use transform="matrix(0.01193576388888889,0,0,0.01193576388888889,0,0)" xlink:href="#V" id="n"/><path d="M158 418v-1536h174v179h20c37-59 106-193 324-193 279 0 474 222 474 576 0 356-194 580-473 580-213 0-288-135-325-197h-14v591H158zm492-555c209 0 317-186 317-421 0-232-105-413-317-413-206 0-314 166-314 413 0 249 111 421 314 421" id="an"/><path d="M409 0L70-1118h191c89 329 165 560 243 925 75-353 154-601 240-925h192c85 325 161 564 235 922 77-354 157-598 244-922h191L1267 0h-179c-86-307-176-590-250-913C763-588 675-308 588 0H409" id="ao"/><g id="o"><use transform="matrix(0.01193576388888889,0,0,0.01193576388888889,0,0)" xlink:href="#an"/><use transform="matrix(0.01193576388888889,0,0,0.01193576388888889,15.206163194444446,0)" xlink:href="#ab"/><use transform="matrix(0.01193576388888889,0,0,0.01193576388888889,28.932291666666668,0)" xlink:href="#X"/><use transform="matrix(0.01193576388888889,0,0,0.01193576388888889,41.83485243055556,0)" xlink:href="#X"/><use transform="matrix(0.01193576388888889,0,0,0.01193576388888889,54.737413194444436,0)" xlink:href="#ao"/><use transform="matrix(0.01193576388888889,0,0,0.01193576388888889,74.30013020833334,0)" xlink:href="#am"/><use transform="matrix(0.01193576388888889,0,0,0.01193576388888889,88.9572482638889,0)" xlink:href="#Z"/><use transform="matrix(0.01193576388888889,0,0,0.01193576388888889,97.75390625,0)" xlink:href="#aj"/><use transform="matrix(0.01193576388888889,0,0,0.01193576388888889,112.72135416666667,0)" xlink:href="#ad"/></g><g id="p"><use transform="matrix(0.01193576388888889,0,0,0.01193576388888889,0,0)" xlink:href="#ae"/><use transform="matrix(0.01193576388888889,0,0,0.01193576388888889,15.683593750000002,0)" xlink:href="#af"/><use transform="matrix(0.01193576388888889,0,0,0.01193576388888889,23.680555555555557,0)" xlink:href="#Z"/><use transform="matrix(0.01193576388888889,0,0,0.01193576388888889,33.264973958333336,0)" xlink:href="#ag"/><use transform="matrix(0.01193576388888889,0,0,0.01193576388888889,39.18511284722223,0)" xlink:href="#aa"/><use transform="matrix(0.01193576388888889,0,0,0.01193576388888889,53.62738715277778,0)" xlink:href="#ah"/></g><path d="M338-670V0H158v-1490h180v566c73-149 190-208 336-208 226 0 379 139 379 422V0H872v-695c0-172-96-275-252-275-161 0-282 109-282 300" id="ap"/><path d="M218-607c0-325 108-727 258-974h175c-155 315-250 682-250 974 0 265 78 531 250 886H476C306-10 218-315 218-607" id="aq"/><path d="M96 279C273-86 346-350 346-607c0-292-95-659-250-974h175c150 246 258 650 258 974 0 297-91 602-258 886H96" id="ar"/><g id="q"><use transform="matrix(0.01193576388888889,0,0,0.01193576388888889,0,0)" xlink:href="#X"/><use transform="matrix(0.01193576388888889,0,0,0.01193576388888889,12.90256076388889,0)" xlink:href="#Y"/><use transform="matrix(0.01193576388888889,0,0,0.01193576388888889,27.392578125000004,0)" xlink:href="#ab"/><use transform="matrix(0.01193576388888889,0,0,0.01193576388888889,41.11870659722222,0)" xlink:href="#Z"/><use transform="matrix(0.01193576388888889,0,0,0.01193576388888889,49.915364583333336,0)" xlink:href="#ak"/><use transform="matrix(0.01193576388888889,0,0,0.01193576388888889,63.880208333333336,0)" xlink:href="#ap"/><use transform="matrix(0.01193576388888889,0,0,0.01193576388888889,78.33441840277779,0)" xlink:href="#aq"/><use transform="matrix(0.01193576388888889,0,0,0.01193576388888889,87.25043402777779,0)" xlink:href="#ar"/></g><path d="M135 0v-1490h581c339 0 533 192 533 485 0 204-94 351-264 424L1302 0H964L680-532H440V0H135zm305-779h220c186 0 274-77 274-226 0-150-88-233-275-233H440v459" id="as"/><path d="M625 442c-280 0-454-114-503-274l258-72c28 63 97 128 243 128 153 0 246-69 246-216v-206h-23C805-108 717-16 536-16 284-16 81-191 81-561c0-378 208-571 456-571 188 0 280 113 321 202h13v-188h295V-9c0 303-226 451-541 451zm5-686c153 0 240-119 240-319 0-198-86-329-240-329-158 0-241 137-241 329 0 195 85 319 241 319" id="at"/><path d="M128 0v-1118h300V0H128zm150-1264c-91 0-165-68-165-154 0-85 74-154 165-154 90 0 165 69 165 154 0 86-75 154-165 154" id="au"/><path d="M683-1118v229H474v562c0 71 29 104 102 104 23 0 73-7 95-13l43 225C647 9 580 16 520 16 296 16 174-96 174-301v-588H20v-229h154v-266h300v266h209" id="av"/><path d="M537 19C279 19 81-185 81-557c0-382 206-575 454-575 190 0 278 113 318 202h10v-560h300V0H868v-179h-15C812-89 719 19 537 19zm92-241c153 0 240-134 240-336 0-203-86-334-240-334-158 0-240 138-240 334 0 197 84 336 240 336" id="aw"/><g id="r"><use transform="matrix(0.01193576388888889,0,0,0.01193576388888889,0,0)" xlink:href="#as"/><use transform="matrix(0.01193576388888889,0,0,0.01193576388888889,15.755208333333334,0)" xlink:href="#T"/><use transform="matrix(0.01193576388888889,0,0,0.01193576388888889,30.31684027777778,0)" xlink:href="#at"/><use transform="matrix(0.01193576388888889,0,0,0.01193576388888889,45.76171875000001,0)" xlink:href="#au"/><use transform="matrix(0.01193576388888889,0,0,0.01193576388888889,52.386067708333336,0)" xlink:href="#S"/><use transform="matrix(0.01193576388888889,0,0,0.01193576388888889,66.0763888888889,0)" xlink:href="#av"/><use transform="matrix(0.01193576388888889,0,0,0.01193576388888889,74.7894965277778,0)" xlink:href="#T"/><use transform="matrix(0.01193576388888889,0,0,0.01193576388888889,89.35112847222224,0)" xlink:href="#U"/><use transform="matrix(0.01193576388888889,0,0,0.01193576388888889,98.70876736111111,0)" xlink:href="#T"/><use transform="matrix(0.01193576388888889,0,0,0.01193576388888889,113.27039930555557,0)" xlink:href="#aw"/><use transform="matrix(0.01193576388888889,0,0,0.01193576388888889,128.67947048611114,0)" xlink:href="#R"/><use transform="matrix(0.01193576388888889,0,0,0.01193576388888889,146.5711805555556,0)" xlink:href="#S"/><use transform="matrix(0.01193576388888889,0,0,0.01193576388888889,160.26150173611114,0)" xlink:href="#T"/><use transform="matrix(0.01193576388888889,0,0,0.01193576388888889,174.8231336805556,0)" xlink:href="#U"/></g><path d="M678-1118v154H420V0H240v-964H20v-154h220v-149c0-194 155-293 318-293 85 0 141 18 168 30l-50 154c-19-6-47-17-97-17-111 0-159 58-159 166v109h258" id="ax"/><path d="M180 0v-1490h528c311 0 458 177 458 395 0 191-114 278-244 313v14c139 9 302 137 302 371 0 225-148 397-499 397H180zm190-168h350c232 0 321-102 321-231 0-149-120-277-311-277H370v508zm0-668h328c160 0 286-101 286-255 0-129-87-231-280-231H370v486" id="ay"/><g id="s"><use transform="matrix(0.01193576388888889,0,0,0.01193576388888889,0,0)" xlink:href="#ax"/><use transform="matrix(0.01193576388888889,0,0,0.01193576388888889,8.331163194444445,0)" xlink:href="#am"/><use transform="matrix(0.01193576388888889,0,0,0.01193576388888889,22.98828125,0)" xlink:href="#ai"/><use transform="matrix(0.01193576388888889,0,0,0.01193576388888889,28.908420138888893,0)" xlink:href="#ai"/><use transform="matrix(0.01193576388888889,0,0,0.01193576388888889,34.82855902777778,0)" xlink:href="#am"/><use transform="matrix(0.01193576388888889,0,0,0.01193576388888889,49.04405381944445,0)" xlink:href="#ao"/><use transform="matrix(0.01193576388888889,0,0,0.01193576388888889,69.04839409722223,0)" xlink:href="#ay"/><use transform="matrix(0.01193576388888889,0,0,0.01193576388888889,85.04231770833334,0)" xlink:href="#Z"/><use transform="matrix(0.01193576388888889,0,0,0.01193576388888889,93.83897569444444,0)" xlink:href="#Y"/><use transform="matrix(0.01193576388888889,0,0,0.01193576388888889,107.64865451388887,0)" xlink:href="#ao"/><use transform="matrix(0.01193576388888889,0,0,0.01193576388888889,127.21137152777777,0)" xlink:href="#Y"/><use transform="matrix(0.01193576388888889,0,0,0.01193576388888889,141.46267361111111,0)" xlink:href="#Z"/><use transform="matrix(0.01193576388888889,0,0,0.01193576388888889,151.0470920138889,0)" xlink:href="#al"/><use transform="matrix(0.01193576388888889,0,0,0.01193576388888889,164.78515625000003,0)" xlink:href="#aq"/><use transform="matrix(0.01193576388888889,0,0,0.01193576388888889,173.70117187500003,0)" xlink:href="#ar"/></g><path d="M180 0v-1490h510c348 0 508 194 508 460 0 198-88 351-276 417L1256 0h-220L726-579c-117 2-238 0-356 1V0H180zm190-747h312c235 0 327-108 327-283 0-177-92-293-329-293H370v576" id="az"/><path d="M481 0L54-1118h197c107 314 236 620 325 951 87-331 217-637 324-951h197L670 0H481" id="aA"/><g id="t"><use transform="matrix(0.01193576388888889,0,0,0.01193576388888889,0,0)" xlink:href="#ao"/><use transform="matrix(0.01193576388888889,0,0,0.01193576388888889,20.00434027777778,0)" xlink:href="#Z"/><use transform="matrix(0.01193576388888889,0,0,0.01193576388888889,29.588758680555557,0)" xlink:href="#ag"/><use transform="matrix(0.01193576388888889,0,0,0.01193576388888889,35.50889756944444,0)" xlink:href="#af"/><use transform="matrix(0.01193576388888889,0,0,0.01193576388888889,43.26714409722222,0)" xlink:href="#Y"/><use transform="matrix(0.01193576388888889,0,0,0.01193576388888889,57.51844618055556,0)" xlink:href="#az"/><use transform="matrix(0.01193576388888889,0,0,0.01193576388888889,72.89171006944446,0)" xlink:href="#Y"/><use transform="matrix(0.01193576388888889,0,0,0.01193576388888889,86.66558159722223,0)" xlink:href="#aA"/><use transform="matrix(0.01193576388888889,0,0,0.01193576388888889,100.40364583333334,0)" xlink:href="#ag"/><use transform="matrix(0.01193576388888889,0,0,0.01193576388888889,106.32378472222223,0)" xlink:href="#Y"/><use transform="matrix(0.01193576388888889,0,0,0.01193576388888889,120.13346354166667,0)" xlink:href="#ao"/><use transform="matrix(0.01193576388888889,0,0,0.01193576388888889,140.13780381944446,0)" xlink:href="#aq"/><use transform="matrix(0.01193576388888889,0,0,0.01193576388888889,149.05381944444446,0)" xlink:href="#ar"/></g><path d="M49 0l509-1490h400L1480 0h-339l-115-346H497L386 0H49zm524-585h374c-75-213-124-402-192-666-66 268-110 453-182 666" id="aB"/><path d="M128 0v-1118h278l12 217c60-163 185-234 319-234 143 0 236 81 288 251 63-172 205-251 359-251 205 0 357 138 357 381V0h-301v-697c0-126-76-187-177-187-114 0-184 79-184 196V0H789v-705c0-109-72-179-174-179-106 0-187 74-187 208V0H128" id="aC"/><path d="M428-647V0H128v-1118h283l4 231c63-156 176-245 348-245 232 0 384 159 384 421V0H847v-659c0-139-76-222-202-222-128 0-217 86-217 234" id="aD"/><g id="u"><use transform="matrix(0.01193576388888889,0,0,0.01193576388888889,0,0)" xlink:href="#aB"/><use transform="matrix(0.01193576388888889,0,0,0.01193576388888889,17.688802083333336,0)" xlink:href="#aw"/><use transform="matrix(0.01193576388888889,0,0,0.01193576388888889,33.09787326388889,0)" xlink:href="#aC"/><use transform="matrix(0.01193576388888889,0,0,0.01193576388888889,55.40581597222223,0)" xlink:href="#au"/><use transform="matrix(0.01193576388888889,0,0,0.01193576388888889,62.03016493055556,0)" xlink:href="#aD"/></g><path d="M645 0H180v-1490h484c435 0 692 280 692 742 0 466-257 748-711 748zM370-168h263c363 0 539-218 539-580 0-358-176-574-521-574H370v1154" id="aE"/><g id="v"><use transform="matrix(0.01193576388888889,0,0,0.01193576388888889,0,0)" xlink:href="#ac"/><use transform="matrix(0.01193576388888889,0,0,0.01193576388888889,21.412760416666668,0)" xlink:href="#ab"/><use transform="matrix(0.01193576388888889,0,0,0.01193576388888889,35.13888888888889,0)" xlink:href="#aa"/><use transform="matrix(0.01193576388888889,0,0,0.01193576388888889,49.58116319444445,0)" xlink:href="#ab"/><use transform="matrix(0.01193576388888889,0,0,0.01193576388888889,63.30729166666667,0)" xlink:href="#ah"/><use transform="matrix(0.01193576388888889,0,0,0.01193576388888889,78.29861111111111,0)" xlink:href="#Y"/><use transform="matrix(0.01193576388888889,0,0,0.01193576388888889,92.54991319444444,0)" xlink:href="#aE"/><use transform="matrix(0.01193576388888889,0,0,0.01193576388888889,110.19097222222223,0)" xlink:href="#ab"/><use transform="matrix(0.01193576388888889,0,0,0.01193576388888889,123.91710069444446,0)" xlink:href="#af"/><use transform="matrix(0.01193576388888889,0,0,0.01193576388888889,132.03342013888889,0)" xlink:href="#ab"/><use transform="matrix(0.01193576388888889,0,0,0.01193576388888889,145.75954861111111,0)" xlink:href="#X"/><use transform="matrix(0.01193576388888889,0,0,0.01193576388888889,158.662109375,0)" xlink:href="#Y"/><use transform="matrix(0.01193576388888889,0,0,0.01193576388888889,172.91341145833334,0)" xlink:href="#af"/><use transform="matrix(0.01193576388888889,0,0,0.01193576388888889,180.91037326388889,0)" xlink:href="#aq"/><use transform="matrix(0.01193576388888889,0,0,0.01193576388888889,189.82638888888889,0)" xlink:href="#ar"/></g><path d="M763 24c-353 0-583-224-583-531v-983h190v968c0 214 149 370 393 370 243 0 391-156 391-370v-968h190v983c0 307-230 531-581 531" id="aF"/><g id="w"><use transform="matrix(0.01193576388888889,0,0,0.01193576388888889,0,0)" xlink:href="#aj"/><use transform="matrix(0.01193576388888889,0,0,0.01193576388888889,14.967447916666668,0)" xlink:href="#Y"/><use transform="matrix(0.01193576388888889,0,0,0.01193576388888889,29.218750000000004,0)" xlink:href="#ai"/><use transform="matrix(0.01193576388888889,0,0,0.01193576388888889,35.138888888888886,0)" xlink:href="#Y"/><use transform="matrix(0.01193576388888889,0,0,0.01193576388888889,49.39019097222223,0)" xlink:href="#af"/><use transform="matrix(0.01193576388888889,0,0,0.01193576388888889,57.14843750000001,0)" xlink:href="#Y"/><use transform="matrix(0.01193576388888889,0,0,0.01193576388888889,71.39973958333333,0)" xlink:href="#aF"/><use transform="matrix(0.01193576388888889,0,0,0.01193576388888889,89.58984375,0)" xlink:href="#X"/><use transform="matrix(0.01193576388888889,0,0,0.01193576388888889,102.49240451388887,0)" xlink:href="#Y"/><use transform="matrix(0.01193576388888889,0,0,0.01193576388888889,116.74370659722221,0)" xlink:href="#Z"/><use transform="matrix(0.01193576388888889,0,0,0.01193576388888889,125.94618055555554,0)" xlink:href="#aq"/><use transform="matrix(0.01193576388888889,0,0,0.01193576388888889,134.86219618055554,0)" xlink:href="#ar"/></g><path d="M135 0v-1490h591c327 0 492 160 492 383 0 177-115 286-268 320v15c168 8 326 140 326 361 0 236-176 411-512 411H135zm305-251h264c179 0 258-76 258-189 0-125-97-215-250-215H440v404zm0-613h241c131 0 228-74 228-194 0-109-79-183-222-183H440v377" id="aG"/><g id="x"><use transform="matrix(0.01193576388888889,0,0,0.01193576388888889,0,0)" xlink:href="#aG"/><use transform="matrix(0.01193576388888889,0,0,0.01193576388888889,16.172960069444446,0)" xlink:href="#T"/><use transform="matrix(0.01193576388888889,0,0,0.01193576388888889,30.734592013888893,0)" xlink:href="#T"/><use transform="matrix(0.01193576388888889,0,0,0.01193576388888889,45.29622395833334,0)" xlink:href="#U"/></g><path d="M677 24c-213 0-288-135-325-197h-20V0H158v-1490h180v551h14c37-59 106-193 324-193 279 0 474 222 474 576 0 356-194 580-473 580zm-27-161c209 0 317-186 317-421 0-232-105-413-317-413-206 0-314 166-314 413 0 249 111 421 314 421" id="aH"/><path d="M934 0v166H0V0h934" id="aI"/><g id="y"><use transform="matrix(0.01193576388888889,0,0,0.01193576388888889,0,0)" xlink:href="#aH"/><use transform="matrix(0.01193576388888889,0,0,0.01193576388888889,14.967447916666668,0)" xlink:href="#Y"/><use transform="matrix(0.01193576388888889,0,0,0.01193576388888889,29.218750000000004,0)" xlink:href="#Y"/><use transform="matrix(0.01193576388888889,0,0,0.01193576388888889,43.470052083333336,0)" xlink:href="#Z"/><use transform="matrix(0.01193576388888889,0,0,0.01193576388888889,52.67252604166667,0)" xlink:href="#aI"/><use transform="matrix(0.01193576388888889,0,0,0.01193576388888889,64.64409722222223,0)" xlink:href="#ag"/><use transform="matrix(0.01193576388888889,0,0,0.01193576388888889,70.56423611111111,0)" xlink:href="#aj"/><use transform="matrix(0.01193576388888889,0,0,0.01193576388888889,85.53168402777779,0)" xlink:href="#ad"/></g><g id="z"><use transform="matrix(0.01193576388888889,0,0,0.01193576388888889,0,0)" xlink:href="#aa"/><use transform="matrix(0.01193576388888889,0,0,0.01193576388888889,14.442274305555557,0)" xlink:href="#ab"/><use transform="matrix(0.01193576388888889,0,0,0.01193576388888889,28.16840277777778,0)" xlink:href="#ac"/><use transform="matrix(0.01193576388888889,0,0,0.01193576388888889,49.581163194444436,0)" xlink:href="#Y"/><use transform="matrix(0.01193576388888889,0,0,0.01193576388888889,63.832465277777786,0)" xlink:href="#ad"/></g><g id="A"><use transform="matrix(0.01193576388888889,0,0,0.01193576388888889,0,0)" xlink:href="#X"/><use transform="matrix(0.01193576388888889,0,0,0.01193576388888889,12.90256076388889,0)" xlink:href="#af"/><use transform="matrix(0.01193576388888889,0,0,0.01193576388888889,21.376953125,0)" xlink:href="#al"/><use transform="matrix(0.01193576388888889,0,0,0.01193576388888889,35.234375,0)" xlink:href="#ai"/><use transform="matrix(0.01193576388888889,0,0,0.01193576388888889,41.154513888888886,0)" xlink:href="#Y"/><use transform="matrix(0.01193576388888889,0,0,0.01193576388888889,55.40581597222223,0)" xlink:href="#ad"/></g><g id="B"><use transform="matrix(0.01193576388888889,0,0,0.01193576388888889,0,0)" xlink:href="#ab"/><use transform="matrix(0.01193576388888889,0,0,0.01193576388888889,13.726128472222223,0)" xlink:href="#aH"/><use transform="matrix(0.01193576388888889,0,0,0.01193576388888889,28.216145833333336,0)" xlink:href="#aA"/><use transform="matrix(0.01193576388888889,0,0,0.01193576388888889,41.95421006944445,0)" xlink:href="#ad"/></g><g id="C"><use transform="matrix(0.01193576388888889,0,0,0.01193576388888889,0,0)" xlink:href="#ax"/><use transform="matrix(0.01193576388888889,0,0,0.01193576388888889,9.047309027777779,0)" xlink:href="#ai"/><use transform="matrix(0.01193576388888889,0,0,0.01193576388888889,14.967447916666668,0)" xlink:href="#am"/><use transform="matrix(0.01193576388888889,0,0,0.01193576388888889,29.863281250000004,0)" xlink:href="#ab"/><use transform="matrix(0.01193576388888889,0,0,0.01193576388888889,43.58940972222223,0)" xlink:href="#af"/></g><g id="D"><use transform="matrix(0.01193576388888889,0,0,0.01193576388888889,0,0)" xlink:href="#ak"/><use transform="matrix(0.01193576388888889,0,0,0.01193576388888889,13.964843750000002,0)" xlink:href="#am"/><use transform="matrix(0.01193576388888889,0,0,0.01193576388888889,28.621961805555557,0)" xlink:href="#W"/><use transform="matrix(0.01193576388888889,0,0,0.01193576388888889,43.076171875,0)" xlink:href="#aa"/><use transform="matrix(0.01193576388888889,0,0,0.01193576388888889,57.51844618055556,0)" xlink:href="#af"/><use transform="matrix(0.01193576388888889,0,0,0.01193576388888889,65.51540798611111,0)" xlink:href="#Z"/><use transform="matrix(0.01193576388888889,0,0,0.01193576388888889,75.09982638888889,0)" xlink:href="#al"/><use transform="matrix(0.01193576388888889,0,0,0.01193576388888889,88.837890625,0)" xlink:href="#ad"/></g><path d="M361 0L31-1118h315c68 295 127 523 188 845 63-317 128-551 199-845h276c71 296 131 525 196 846 57-321 119-552 186-846h319L1378 0h-305c-73-261-148-486-204-771C813-484 740-261 666 0H361" id="aJ"/><path d="M120 396l69-226c123 42 245 23 254-107l8-60L31-1118h319c87 288 199 559 259 872 72-308 185-583 277-872h315L726 132c-68 181-186 294-410 294-79 0-153-13-196-30" id="aK"/><g id="E"><use transform="matrix(0.01193576388888889,0,0,0.01193576388888889,0,0)" xlink:href="#aG"/><use transform="matrix(0.01193576388888889,0,0,0.01193576388888889,16.172960069444446,0)" xlink:href="#U"/><use transform="matrix(0.01193576388888889,0,0,0.01193576388888889,25.530598958333336,0)" xlink:href="#T"/><use transform="matrix(0.01193576388888889,0,0,0.01193576388888889,39.75802951388889,0)" xlink:href="#aJ"/><use transform="matrix(0.01193576388888889,0,0,0.01193576388888889,60.20399305555556,0)" xlink:href="#T"/><use transform="matrix(0.01193576388888889,0,0,0.01193576388888889,74.76562500000001,0)" xlink:href="#U"/><use transform="matrix(0.01193576388888889,0,0,0.01193576388888889,85.10199652777779,0)" xlink:href="#aK"/></g><g id="F"><use transform="matrix(0.01193576388888889,0,0,0.01193576388888889,0,0)" xlink:href="#aH"/><use transform="matrix(0.01193576388888889,0,0,0.01193576388888889,14.967447916666668,0)" xlink:href="#Z"/><use transform="matrix(0.01193576388888889,0,0,0.01193576388888889,23.76410590277778,0)" xlink:href="#Y"/><use transform="matrix(0.01193576388888889,0,0,0.01193576388888889,37.57378472222222,0)" xlink:href="#ao"/><use transform="matrix(0.01193576388888889,0,0,0.01193576388888889,57.136501736111114,0)" xlink:href="#Y"/><use transform="matrix(0.01193576388888889,0,0,0.01193576388888889,71.38780381944444,0)" xlink:href="#Z"/><use transform="matrix(0.01193576388888889,0,0,0.01193576388888889,80.97222222222221,0)" xlink:href="#al"/><use transform="matrix(0.01193576388888889,0,0,0.01193576388888889,92.77669270833333,0)" xlink:href="#aI"/><use transform="matrix(0.01193576388888889,0,0,0.01193576388888889,104.74826388888887,0)" xlink:href="#ag"/><use transform="matrix(0.01193576388888889,0,0,0.01193576388888889,110.66840277777777,0)" xlink:href="#aj"/><use transform="matrix(0.01193576388888889,0,0,0.01193576388888889,125.63585069444443,0)" xlink:href="#ad"/></g><g id="G"><use transform="matrix(0.01193576388888889,0,0,0.01193576388888889,0,0)" xlink:href="#af"/><use transform="matrix(0.01193576388888889,0,0,0.01193576388888889,8.474392361111112,0)" xlink:href="#al"/><use transform="matrix(0.01193576388888889,0,0,0.01193576388888889,22.212456597222225,0)" xlink:href="#an"/><use transform="matrix(0.01193576388888889,0,0,0.01193576388888889,37.17990451388889,0)" xlink:href="#Y"/><use transform="matrix(0.01193576388888889,0,0,0.01193576388888889,51.43120659722223,0)" xlink:href="#ad"/></g><path d="M443 0L31-1118h319c90 293 199 572 268 885 66-313 175-593 264-885h315L784 0H443" id="aL"/><g id="H"><use transform="matrix(0.01193576388888889,0,0,0.01193576388888889,0,0)" xlink:href="#as"/><use transform="matrix(0.01193576388888889,0,0,0.01193576388888889,15.755208333333334,0)" xlink:href="#T"/><use transform="matrix(0.01193576388888889,0,0,0.01193576388888889,29.875217013888893,0)" xlink:href="#aL"/><use transform="matrix(0.01193576388888889,0,0,0.01193576388888889,44.53233506944445,0)" xlink:href="#au"/><use transform="matrix(0.01193576388888889,0,0,0.01193576388888889,51.15668402777778,0)" xlink:href="#T"/><use transform="matrix(0.01193576388888889,0,0,0.01193576388888889,65.38411458333334,0)" xlink:href="#aJ"/></g><g id="I"><use transform="matrix(0.01193576388888889,0,0,0.01193576388888889,0,0)" xlink:href="#aj"/><use transform="matrix(0.01193576388888889,0,0,0.01193576388888889,14.967447916666668,0)" xlink:href="#ab"/><use transform="matrix(0.01193576388888889,0,0,0.01193576388888889,28.693576388888893,0)" xlink:href="#af"/><use transform="matrix(0.01193576388888889,0,0,0.01193576388888889,36.45182291666667,0)" xlink:href="#Y"/><use transform="matrix(0.01193576388888889,0,0,0.01193576388888889,50.70312500000001,0)" xlink:href="#ad"/></g><g id="J"><use transform="matrix(0.01193576388888889,0,0,0.01193576388888889,0,0)" xlink:href="#aj"/><use transform="matrix(0.01193576388888889,0,0,0.01193576388888889,14.967447916666668,0)" xlink:href="#ab"/><use transform="matrix(0.01193576388888889,0,0,0.01193576388888889,28.693576388888893,0)" xlink:href="#af"/><use transform="matrix(0.01193576388888889,0,0,0.01193576388888889,36.45182291666667,0)" xlink:href="#Y"/></g><path d="M65 0l393-574-370-544h210c88 136 192 297 267 435 67-142 176-302 264-435h206L661-564 1053 0H844c-94-144-206-310-287-458C484-308 366-142 273 0H65" id="aM"/><g id="K"><use transform="matrix(0.01193576388888889,0,0,0.01193576388888889,0,0)" xlink:href="#af"/><use transform="matrix(0.01193576388888889,0,0,0.01193576388888889,7.758246527777779,0)" xlink:href="#Y"/><use transform="matrix(0.01193576388888889,0,0,0.01193576388888889,21.46050347222222,0)" xlink:href="#aM"/><use transform="matrix(0.01193576388888889,0,0,0.01193576388888889,35.28211805555556,0)" xlink:href="#af"/><use transform="matrix(0.01193576388888889,0,0,0.01193576388888889,43.279079861111114,0)" xlink:href="#ad"/></g><g id="L"><use transform="matrix(0.01193576388888889,0,0,0.01193576388888889,0,0)" xlink:href="#X"/><use transform="matrix(0.01193576388888889,0,0,0.01193576388888889,12.90256076388889,0)" xlink:href="#ak"/><use transform="matrix(0.01193576388888889,0,0,0.01193576388888889,26.86740451388889,0)" xlink:href="#am"/><use transform="matrix(0.01193576388888889,0,0,0.01193576388888889,41.52452256944445,0)" xlink:href="#Z"/><use transform="matrix(0.01193576388888889,0,0,0.01193576388888889,50.32118055555556,0)" xlink:href="#Y"/><use transform="matrix(0.01193576388888889,0,0,0.01193576388888889,64.5724826388889,0)" xlink:href="#ad"/></g><g id="M"><use transform="matrix(0.01193576388888889,0,0,0.01193576388888889,0,0)" xlink:href="#ag"/><use transform="matrix(0.01193576388888889,0,0,0.01193576388888889,5.920138888888889,0)" xlink:href="#aa"/><use transform="matrix(0.01193576388888889,0,0,0.01193576388888889,20.362413194444446,0)" xlink:href="#af"/></g><path d="M653-1490V0H466v-1314h-10L96-1047v-204l324-239h233" id="aN"/><use transform="matrix(0.01193576388888889,0,0,0.01193576388888889,0,0)" xlink:href="#aN" id="N"/><path d="M646 20c-332 0-524-278-524-764 0-483 194-766 524-766s524 283 524 766c0 485-191 764-524 764zm0-166c218 0 341-220 341-598 0-380-123-601-341-601s-341 222-341 601c0 378 123 598 341 598" id="aO"/><path d="M295 13c-75 0-135-60-135-135s60-135 135-135 135 60 135 135S370 13 295 13" id="aP"/><path d="M441-652l13-317-268 171-72-126 282-146-282-146 72-128 268 171-13-317h144l-12 317 267-171 72 128-282 146 282 146-72 126-267-171 12 317H441" id="aQ"/><g id="O"><use transform="matrix(0.01193576388888889,0,0,0.01193576388888889,0,0)" xlink:href="#aO"/><use transform="matrix(0.01193576388888889,0,0,0.01193576388888889,14.800347222222227,0)" xlink:href="#aP"/><use transform="matrix(0.01193576388888889,0,0,0.01193576388888889,21.84244791666667,0)" xlink:href="#aP"/><use transform="matrix(0.01193576388888889,0,0,0.01193576388888889,28.884548611111114,0)" xlink:href="#aQ"/></g><g id="P"><use transform="matrix(0.01193576388888889,0,0,0.01193576388888889,0,0)" xlink:href="#aO"/><use transform="matrix(0.01193576388888889,0,0,0.01193576388888889,14.800347222222227,0)" xlink:href="#aP"/><use transform="matrix(0.01193576388888889,0,0,0.01193576388888889,21.84244791666667,0)" xlink:href="#aP"/><use transform="matrix(0.01193576388888889,0,0,0.01193576388888889,26.771918402777786,0)" xlink:href="#aN"/></g><path d="M180 0v-1490h901v168H370v510h643v168H370V0H180" id="aR"/><g id="Q"><use transform="matrix(0.01193576388888889,0,0,0.01193576388888889,0,0)" xlink:href="#aR"/><use transform="matrix(0.01193576388888889,0,0,0.01193576388888889,13.463541666666668,0)" xlink:href="#am"/><use transform="matrix(0.01193576388888889,0,0,0.01193576388888889,28.120659722222225,0)" xlink:href="#ai"/><use transform="matrix(0.01193576388888889,0,0,0.01193576388888889,34.040798611111114,0)" xlink:href="#ai"/><use transform="matrix(0.01193576388888889,0,0,0.01193576388888889,39.9609375,0)" xlink:href="#am"/><use transform="matrix(0.01193576388888889,0,0,0.01193576388888889,54.17643229166667,0)" xlink:href="#ao"/></g></defs></g></svg>